<?xml version="1.0" ?><svg height="36" id="svg6390" version="1.1" width="36" xmlns="http://www.w3.org/2000/svg" xmlns:cc="http://creativecommons.org/ns#" xmlns:dc="http://purl.org/dc/elements/1.1/" xmlns:inkscape="http://www.inkscape.org/namespaces/inkscape" xmlns:rdf="http://www.w3.org/1999/02/22-rdf-syntax-ns#" xmlns:sodipodi="http://sodipodi.sourceforge.net/DTD/sodipodi-0.dtd" xmlns:svg="http://www.w3.org/2000/svg"><defs id="defs6392"/><g id="layer1" transform="translate(0,-1016.3622)"><g id="g3" transform="translate(-7,1019.3622)"><path d="M 10.90625,6 C 10.43195,6 10,6.44206 10,7.09375 l 0,5.8125 C 10,13.55794 10.43195,14 10.90625,14 L 11,14 11,13 c 0,-0.54535 0.4547,-1 1,-1 l 21,0 c 0.5453,0 1,0.45465 1,1 l 0,1 1,0 0,-1.5 0,-0.5 3,0 0,2 1.09375,0 C 39.56805,14 40,13.55794 40,12.90625 l 0,-5.8125 C 40,6.44206 39.56805,6 39.09375,6 l -0.375,0 C 38.89205,6.2959 39,6.63427 39,7 l 0,2 c 0,1.09934 -0.9007,2 -2,2 l -24,0 c -1.0993,0 -2,-0.90066 -2,-2 l 0,-2 c 0,-0.36573 0.10795,-0.7041 0.28125,-1 l -0.375,0 z M 13,6 c -0.5627,0 -1,0.43738 -1,1 l 0,2 c 0,0.56262 0.4373,1 1,1 l 24,0 c 0.5627,0 1,-0.43738 1,-1 L 38,7 C 38,6.43738 37.5627,6 37,6 L 13,6 z m 0,2 24,0 0,1 -24,0 0,-1 z m -1,5 0,3 0.03125,0 20.9375,0 L 33,16 33,13 12,13 z m 24,0 0,1 1,0 0,-1 -1,0 z m -16.3125,4 c -0.176997,0 -0.3125,0.162879 -0.3125,0.34375 l 0,8.28125 c 0,0.180872 0.135503,0.34375 0.3125,0.34375 0.132748,0 0.26371,-0.101063 0.3125,-0.21875 0.01626,-0.03923 0,-0.07978 0,-0.125 l 0,-8.28125 C 20,17.162879 19.864498,17 19.6875,17 z m 5.125,0 C 24.635502,17 24.5,17.162879 24.5,17.34375 l 0,8.28125 c 0,0.04522 -0.01626,0.08577 0,0.125 0.04879,0.117687 0.179752,0.21875 0.3125,0.21875 0.176997,0 0.3125,-0.162878 0.3125,-0.34375 l 0,-8.28125 C 25.125,17.162879 24.989497,17 24.8125,17 z m -6.53125,0.0625 c -0.176997,0 -0.3125,0.131628 -0.3125,0.3125 l 0,8.28125 c 0,0.770344 -0.622073,1.40625 -1.375,1.40625 -0.752926,0 -1.34375,-0.634969 -1.34375,-1.40625 0,-0.633519 0.393806,-1.166628 1,-1.34375 0.169661,-0.04967 0.26735,-0.232876 0.21875,-0.40625 -0.04861,-0.17431 -0.235672,-0.26842 -0.40625,-0.21875 -0.883153,0.258656 -1.5,1.039089 -1.5,1.96875 0,1.132087 0.925246,2.0625 2.03125,2.0625 1.106005,0 2.03125,-0.930413 2.03125,-2.0625 l 0,-8.28125 c 0,-0.180872 -0.166753,-0.3125 -0.34375,-0.3125 z m 7.9375,0 c -0.176997,0 -0.34375,0.131628 -0.34375,0.3125 l 0,8.28125 c 0,1.132087 0.925245,2.0625 2.03125,2.0625 1.106004,0 2.03125,-0.930413 2.03125,-2.0625 0,-0.929661 -0.616847,-1.710094 -1.5,-1.96875 -0.170578,-0.04967 -0.357644,0.04444 -0.40625,0.21875 -0.0486,0.173374 0.04909,0.35658 0.21875,0.40625 0.606194,0.177122 1,0.710231 1,1.34375 0,0.771281 -0.590824,1.40625 -1.34375,1.40625 -0.752927,0 -1.375,-0.635906 -1.375,-1.40625 l 0,-8.28125 c 0,-0.180872 -0.135503,-0.3125 -0.3125,-0.3125 z m -9.625,0.09375 c -0.113554,0.04821 -0.1875,0.176847 -0.1875,0.3125 l 0,3.53125 c 0,0.770344 -0.639567,1.375 -1.40625,1.375 -0.75201,0 -1.34375,-0.603719 -1.34375,-1.375 0,-0.645702 0.410314,-1.224117 1,-1.375 0.172411,-0.04311 0.29677,-0.201626 0.25,-0.375 C 14.86315,19.07381 14.671495,18.9872 14.5,19.03125 13.624184,19.254294 13,20.051595 13,21 c 0,1.132087 0.893078,2.0625 2,2.0625 1.120677,0 2.03125,-0.930413 2.03125,-2.0625 l 0,-3.53125 c 0,-0.180871 -0.135503,-0.3125 -0.3125,-0.3125 -0.04425,0 -0.08715,-0.01607 -0.125,0 z m 11.0625,0 c -0.113554,0.04821 -0.1875,0.176847 -0.1875,0.3125 l 0,3.53125 c 0,1.132087 0.910573,2.0625 2.03125,2.0625 1.106922,0 2,-0.930413 2,-2.0625 0,-0.948405 -0.624184,-1.745706 -1.5,-1.96875 -0.171495,-0.04405 -0.363147,0.04256 -0.40625,0.21875 -0.04677,0.173374 0.07759,0.331891 0.25,0.375 0.589686,0.150883 1,0.729298 1,1.375 0,0.771281 -0.59174,1.375 -1.34375,1.375 -0.766683,0 -1.40625,-0.604656 -1.40625,-1.375 l 0,-3.53125 c 0,-0.180871 -0.135503,-0.3125 -0.3125,-0.3125 -0.04425,0 -0.08715,-0.01607 -0.125,0 z" id="path11" style="fill:#010101"/></g></g></svg>