<?xml version="1.0" ?><svg height="36" id="svg6390" version="1.1" width="36" xmlns="http://www.w3.org/2000/svg" xmlns:cc="http://creativecommons.org/ns#" xmlns:dc="http://purl.org/dc/elements/1.1/" xmlns:inkscape="http://www.inkscape.org/namespaces/inkscape" xmlns:rdf="http://www.w3.org/1999/02/22-rdf-syntax-ns#" xmlns:sodipodi="http://sodipodi.sourceforge.net/DTD/sodipodi-0.dtd" xmlns:svg="http://www.w3.org/2000/svg"><defs id="defs6392"/><g id="layer1" transform="translate(0,-1016.3622)"><path d="m 27.99825,1022.5442 c -0.1179,0 -0.2362,0.01 -0.3535,0.021 -0.01,2e-4 -0.014,2e-4 -0.024,0 l -9.6582,0.5371 0,4.4395 -5.9277,0 0,-4.1114 -1.9199,0.1075 c -0.2693,0.072 -0.5571,0.3678 -0.7734,0.9218 -0.2184,0.5599 -0.3399,1.3228 -0.3399,2.084 0,0.7612 0.1215,1.5242 0.3399,2.084 0.2157,0.5528 0.5027,0.847 0.7714,0.9199 l 14.1993,0.7891 c 0.2281,0.013 0.4188,0.1783 0.4628,0.4023 0.1405,0.7134 0.2395,1.4147 0.3125,2.1035 0.043,0.09 0.05,0.1903 0.033,0.2872 0.2245,2.4173 0.036,4.6375 -0.5292,6.414 l 6.332,0 c -0.4987,-2.4898 -1.2065,-6.3229 0.1347,-10.1582 -0.023,-0.1381 0.012,-0.2799 0.098,-0.3906 0.5466,-0.7011 0.8457,-1.5641 0.8457,-2.4531 0,-2.2122 -1.7825,-3.9951 -3.9941,-3.9981 l -0.01,0 z m -11.0352,0.6133 -3.9277,0.2187 0,3.1661 3.9277,0 0,-3.3848 z m -2.9648,0.3867 2,0 0,1 -2,0 0,-1 z m -8.9844,1 0,1 3.4844,0 0,-1 -3.4844,0 z m 22.9844,0 c 1.0986,0 2,0.9014 2,2 0,1.0987 -0.9014,2 -2,2 -1.0986,0 -2,-0.9013 -2,-2 0,-1.0986 0.9014,-2 2,-2 z m -14,0.5 2,0 0,1 -2,0 0,-1 z m 14,0.5 c -0.5582,0 -1,0.4418 -1,1 0,0.5582 0.4418,1 1,1 0.5582,0 1,-0.4418 1,-1 0,-0.5582 -0.4418,-1 -1,-1 z m -24,1 0,1 3.5781,0 0,-1 -3.5781,0 z m 1,2 0,1 3.0781,0 0,-1 -3.0781,0 z m 18.043,5 c 0.06,0.379 0.1635,0.7485 0.1445,1.1328 -0.018,0.3625 -0.074,0.5848 -0.1191,0.8672 l 1.1425,0 c 0,-0.6439 -0.023,-1.3111 -0.084,-2 l -1.084,0 z m 7.1582,7 0,0.027 0.027,-0.027 -0.027,0 z m -2.6602,0.027 0,0.9668 2.1602,0 0,-0.9668 -2.1602,0 z m 0.6797,1.9707 0,1.3711 c 0,0.7109 -0.5565,1.2676 -1.2676,1.2676 l -5.3027,0 c -0.6762,-0.01 -0.6762,1.0096 0,1 l 5.3027,0 c 1.2478,0 2.2676,-1.0199 2.2676,-2.2676 l 0,-1.3711 -1,0 z" id="path6814" style="font-size:medium;font-style:normal;font-variant:normal;font-weight:normal;font-stretch:normal;text-indent:0;text-align:start;text-decoration:none;line-height:normal;letter-spacing:normal;word-spacing:normal;text-transform:none;direction:ltr;block-progression:tb;writing-mode:lr-tb;text-anchor:start;baseline-shift:baseline;color:#000000;fill:#000000;fill-opacity:1;fill-rule:nonzero;stroke:none;visibility:visible;display:inline;overflow:visible;enable-background:accumulate;font-family:sans-serif"/></g></svg>