<svg version="1.1" xmlns="http://www.w3.org/2000/svg" xmlns:xlink="http://www.w3.org/1999/xlink" width="25" height="25" viewBox="0 0 25 25"><path id="Block" d="M24.953,13.456 C24.828,15.175 24.379,16.804 23.553,18.317 C21.617,21.860 18.662,24.027 14.692,24.794 C14.210,24.887 13.717,24.932 13.229,25.000 C12.743,25.000 12.257,25.000 11.771,25.000 C11.704,24.985 11.638,24.960 11.571,24.955 C9.433,24.802 7.457,24.148 5.676,22.960 C2.699,20.975 0.864,18.219 0.207,14.693 C0.117,14.209 0.068,13.717 -0.000,13.229 C-0.000,12.743 -0.000,12.257 -0.000,11.771 C0.016,11.695 0.042,11.620 0.047,11.544 C0.170,9.834 0.616,8.211 1.435,6.706 C3.369,3.152 6.327,0.974 10.308,0.207 C10.791,0.114 11.283,0.068 11.771,-0.000 C12.257,-0.000 12.743,-0.000 13.229,-0.000 C13.296,0.015 13.362,0.040 13.429,0.045 C15.799,0.218 17.952,0.998 19.859,2.409 C22.535,4.390 24.192,7.024 24.793,10.307 C24.882,10.791 24.932,11.283 25.000,11.771 C25.000,12.257 25.000,12.743 25.000,13.229 C24.984,13.305 24.959,13.380 24.953,13.456 zM12.521,0.837 C6.137,0.795 0.898,5.943 0.832,12.381 C0.766,18.875 5.947,24.107 12.491,24.170 C18.828,24.231 24.104,19.018 24.169,12.632 C24.236,6.138 19.071,0.880 12.521,0.837 zM7.313,19.257 C11.291,15.279 15.271,11.298 19.260,7.309 C21.522,10.396 21.433,15.464 18.378,18.462 C15.184,21.597 10.092,21.360 7.313,19.257 zM19.113,8.663 C15.631,12.144 12.139,15.636 8.656,19.120 C11.211,20.508 15.340,20.427 17.925,17.745 C20.649,14.917 20.313,10.706 19.113,8.663 zM6.498,6.662 C9.432,3.626 14.509,3.425 17.695,5.741 C13.708,9.728 9.728,13.709 5.750,17.686 C3.703,15.043 3.351,9.919 6.498,6.662 zM16.377,5.897 C13.754,4.474 9.462,4.544 6.843,7.508 C4.394,10.280 4.708,14.350 5.908,16.366 C9.393,12.881 12.882,9.391 16.377,5.897 z" fill="#757575" /></svg>