<?xml version="1.0" encoding="iso-8859-1"?>
<!-- Generator: Adobe Illustrator 19.1.0, SVG Export Plug-In . SVG Version: 6.00 Build 0)  -->
<svg version="1.1" id="Capa_1" xmlns="http://www.w3.org/2000/svg" xmlns:xlink="http://www.w3.org/1999/xlink" x="0px" y="0px"
	 viewBox="0 0 63 63" style="enable-background:new 0 0 63 63;" xml:space="preserve">
<g>
	<g>
		<g id="group-30svg">
			<path id="path-1_22_" d="M62.5,57.5c0,3.038-2.463,5.5-5.5,5.5H6c-3.037,0-5.5-2.462-5.5-5.5v-52C0.5,2.462,2.963,0,6,0h51
				c3.037,0,5.5,2.462,5.5,5.5V57.5z M59.5,5.5C59.5,4.119,58.381,3,57,3H6C4.619,3,3.5,4.119,3.5,5.5v52C3.5,58.881,4.619,60,6,60
				h51c1.381,0,2.5-1.119,2.5-2.5V5.5z"/>
			<path id="path-2_22_" d="M53.5,44.5c0,3.59-2.91,6.5-6.5,6.5H16c-3.59,0-6.5-2.91-6.5-6.5v-32C9.5,8.91,12.41,6,16,6h31
				c3.59,0,6.5,2.91,6.5,6.5V44.5z M50.5,12.5c0-1.933-1.566-3.5-3.5-3.5H16c-1.933,0-3.5,1.567-3.5,3.5v32
				c0,1.933,1.567,3.5,3.5,3.5h31c1.934,0,3.5-1.567,3.5-3.5V12.5z"/>
			<path id="path-3_22_" d="M51.073,31h-40c-0.828,0-1.5-0.671-1.5-1.5s0.672-1.5,1.5-1.5h40c0.828,0,1.5,0.671,1.5,1.5
				S51.901,31,51.073,31z"/>
			<path id="path-4_21_" d="M32,50.5c-0.828,0-1.5-0.671-1.5-1.5V8c0-0.829,0.672-1.5,1.5-1.5s1.5,0.671,1.5,1.5v41
				C33.5,49.829,32.828,50.5,32,50.5z"/>
			<path id="path-5_21_" d="M47.707,56.209c0,1.429-1.157,2.587-2.586,2.587c-1.428,0-2.586-1.158-2.586-2.587
				c0-1.428,1.158-2.586,2.586-2.586C46.55,53.623,47.707,54.781,47.707,56.209z"/>
			<path id="path-6_18_" d="M39.432,56.209c0,1.429-1.159,2.587-2.586,2.587c-1.429,0-2.587-1.158-2.587-2.587
				c0-1.428,1.158-2.586,2.587-2.586C38.273,53.623,39.432,54.781,39.432,56.209z"/>
			<path id="path-7_14_" d="M31.155,56.209c0,1.429-1.157,2.587-2.586,2.587c-1.428,0-2.586-1.158-2.586-2.587
				c0-1.428,1.158-2.586,2.586-2.586C29.998,53.623,31.155,54.781,31.155,56.209z"/>
			<path id="path-8_13_" d="M22.88,56.209c0,1.429-1.158,2.587-2.586,2.587c-1.429,0-2.587-1.158-2.587-2.587
				c0-1.428,1.158-2.586,2.587-2.586C21.722,53.623,22.88,54.781,22.88,56.209z"/>
			<path id="path-9_10_" d="M43.069,24.041c-2.788,0-5.056-2.268-5.056-5.056s2.268-5.056,5.056-5.056
				c2.788,0,5.056,2.268,5.056,5.056S45.857,24.041,43.069,24.041z M43.069,16.929c-1.133,0-2.056,0.923-2.056,2.056
				c0,1.134,0.923,2.056,2.056,2.056c1.134,0,2.056-0.922,2.056-2.056C45.125,17.852,44.203,16.929,43.069,16.929z"/>
			<path id="path-10_7_" d="M43.069,45.765c-2.788,0-5.056-2.268-5.056-5.056c0-2.788,2.268-5.056,5.056-5.056
				c2.788,0,5.056,2.268,5.056,5.056C48.125,43.497,45.857,45.765,43.069,45.765z M43.069,38.653c-1.133,0-2.056,0.923-2.056,2.056
				c0,1.134,0.923,2.056,2.056,2.056c1.134,0,2.056-0.922,2.056-2.056C45.125,39.576,44.203,38.653,43.069,38.653z"/>
			<path id="path-11_5_" d="M21.345,24.041c-2.788,0-5.056-2.268-5.056-5.056s2.268-5.056,5.056-5.056s5.056,2.268,5.056,5.056
				S24.133,24.041,21.345,24.041z M21.345,16.929c-1.134,0-2.056,0.923-2.056,2.056c0,1.134,0.922,2.056,2.056,2.056
				c1.133,0,2.056-0.922,2.056-2.056C23.401,17.852,22.478,16.929,21.345,16.929z"/>
			<path id="path-12_3_" d="M21.345,45.765c-2.788,0-5.056-2.268-5.056-5.056c0-2.788,2.268-5.056,5.056-5.056
				s5.056,2.268,5.056,5.056C26.401,43.497,24.133,45.765,21.345,45.765z M21.345,38.653c-1.134,0-2.056,0.923-2.056,2.056
				c0,1.134,0.922,2.056,2.056,2.056c1.133,0,2.056-0.922,2.056-2.056C23.401,39.576,22.478,38.653,21.345,38.653z"/>
			<path id="path-13_2_" d="M42,33.5c-0.828,0-1.5-0.671-1.5-1.5v-5c0-0.829,0.672-1.5,1.5-1.5s1.5,0.671,1.5,1.5v5
				C43.5,32.829,42.828,33.5,42,33.5z"/>
			<path id="path-14_2_" d="M21,33.5c-0.828,0-1.5-0.671-1.5-1.5v-5c0-0.829,0.672-1.5,1.5-1.5s1.5,0.671,1.5,1.5v5
				C22.5,32.829,21.828,33.5,21,33.5z"/>
			<path id="path-15_2_" d="M34.073,20h-5c-0.828,0-1.5-0.671-1.5-1.5s0.672-1.5,1.5-1.5h5c0.828,0,1.5,0.671,1.5,1.5
				S34.901,20,34.073,20z"/>
			<path id="path-16_2_" d="M34.073,41h-5c-0.828,0-1.5-0.671-1.5-1.5s0.672-1.5,1.5-1.5h5c0.828,0,1.5,0.671,1.5,1.5
				S34.901,41,34.073,41z"/>
		</g>
	</g>
	<g>
	</g>
	<g>
	</g>
	<g>
	</g>
	<g>
	</g>
	<g>
	</g>
	<g>
	</g>
	<g>
	</g>
	<g>
	</g>
	<g>
	</g>
	<g>
	</g>
	<g>
	</g>
	<g>
	</g>
	<g>
	</g>
	<g>
	</g>
	<g>
	</g>
</g>
<g>
</g>
<g>
</g>
<g>
</g>
<g>
</g>
<g>
</g>
<g>
</g>
<g>
</g>
<g>
</g>
<g>
</g>
<g>
</g>
<g>
</g>
<g>
</g>
<g>
</g>
<g>
</g>
<g>
</g>
</svg>
