<?xml version="1.0" ?><svg height="36" id="svg6390" version="1.1" width="36" xmlns="http://www.w3.org/2000/svg" xmlns:cc="http://creativecommons.org/ns#" xmlns:dc="http://purl.org/dc/elements/1.1/" xmlns:inkscape="http://www.inkscape.org/namespaces/inkscape" xmlns:rdf="http://www.w3.org/1999/02/22-rdf-syntax-ns#" xmlns:sodipodi="http://sodipodi.sourceforge.net/DTD/sodipodi-0.dtd" xmlns:svg="http://www.w3.org/2000/svg"><defs id="defs6392"/><g id="layer1" transform="translate(0,-1016.3622)"><path d="m 5.5,1025.3622 c -0.8396,0 -1.5,0.6604 -1.5,1.5 l 0,11 0,3.5 2.5,0 3,0 12,0 3,0 2.5,0 0,-2 -1.5,0 c -0.034,-5e-4 -0.061,-0.024 -0.094,-0.031 -0.017,0 -0.046,0.01 -0.062,0 -0.2058,-0.067 -0.3434,-0.2524 -0.3438,-0.4687 l 0,-10 c 0,-0.2762 0.2239,-0.5 0.5,-0.5 l 1.5,0 0,-1.5 c 0,-0.8397 -0.6604,-1.5 -1.5,-1.5 l -1.5,0 0,0.5 c 0,0.8223 -0.6777,1.5 -1.5,1.5 l -14,0 c -0.8223,0 -1.5,-0.6777 -1.5,-1.5 l 0,-0.5 -1.5,0 z m 2.5,0 0,0.5 c 0,0.2857 0.2143,0.5 0.5,0.5 l 14,0 c 0.2857,0 0.5,-0.2143 0.5,-0.5 l 0,-0.5 -0.5,0 -14,0 z m 18,4 0,9 1,0 0,-0.5 0,-8.5 z m 3.5,0.5 0,0.5 -1.9688,0 0,1 1.9688,0 0,0.5 2.3438,0 0,-2 z m -11,3.4688 c 1.9304,0 3.5,1.5696 3.5,3.5 l 0,0.031 c 0,0.9143 -0.4528,1.766 -1.0938,2.4062 -0.6409,0.6402 -1.4895,1.0938 -2.4062,1.0938 l -4.5,0 -0.25,0 -2.25,0 c -1.3764,0 -2.5,-1.1237 -2.5,-2.5 0,-1.3764 1.1236,-2.5 2.5,-2.5 l 2.25,0 0.25,0 1.4688,0 c 1.107427,-1.9181 2.178366,-2.0313 3.0312,-2.0313 z m 0,1.0312 c -1.0932,8e-4 -2.0016,0.6842 -2.3438,1.6563 -0.07,0.1997 -0.2569,0.3433 -0.4687,0.3437 l -1.6875,0 -0.25,0 -2.25,0 c -0.8396,0 -1.5,0.6604 -1.5,1.5 0,0.8397 0.6604,1.5 1.5,1.5 l 2.25,0 0.25,0 4.5,0 c 0.5833,0 1.2348,-0.3291 1.7188,-0.8125 0.4839,-0.4833 0.7812,-1.1078 0.7812,-1.6875 l 0,-0.031 c 0,-1.3905 -1.1108,-2.4637 -2.5,-2.4687 z m 0,1 c 0.8225,0 1.5,0.6775 1.5,1.5 0,0.8225 -0.6775,1.5 -1.5,1.5 -0.8225,0 -1.5,-0.6775 -1.5,-1.5 0,-0.8225 0.6775,-1.5 1.5,-1.5 z m 0,1 c -0.2821,0 -0.5,0.2179 -0.5,0.5 0,0.2821 0.2179,0.5 0.5,0.5 0.2821,0 0.5,-0.2179 0.5,-0.5 0,-0.2821 -0.2179,-0.5 -0.5,-0.5 z m -7,1 c 0.2761,0 0.5,0.2239 0.5,0.5 0,0.2761 -0.2239,0.5 -0.5,0.5 -0.2761,0 -0.5,-0.2239 -0.5,-0.5 0,-0.2761 0.2239,-0.5 0.5,-0.5 z m 2,0 c 0.2761,0 0.5,0.2239 0.5,0.5 0,0.2761 -0.2239,0.5 -0.5,0.5 -0.2761,0 -0.5,-0.2239 -0.5,-0.5 0,-0.2761 0.2239,-0.5 0.5,-0.5 z m 2,0 c 0.2761,0 0.5,0.2239 0.5,0.5 0,0.2761 -0.2239,0.5 -0.5,0.5 -0.2761,0 -0.5,-0.2239 -0.5,-0.5 0,-0.2761 0.2239,-0.5 0.5,-0.5 z m -8.5,5 0,1 2,0 0,-1 z m 15,0 0,1 2,0 0,-1 z" id="path9104" style="font-size:medium;font-style:normal;font-variant:normal;font-weight:normal;font-stretch:normal;text-indent:0;text-align:start;text-decoration:none;line-height:normal;letter-spacing:normal;word-spacing:normal;text-transform:none;direction:ltr;block-progression:tb;writing-mode:lr-tb;text-anchor:start;baseline-shift:baseline;color:#000000;fill:#000000;fill-opacity:1;fill-rule:nonzero;stroke:none;visibility:visible;display:inline;overflow:visible;enable-background:accumulate;font-family:sans-serif"/></g></svg>