<?xml version="1.0" ?><svg height="36" id="svg4488" version="1.1" width="36" xmlns="http://www.w3.org/2000/svg" xmlns:cc="http://creativecommons.org/ns#" xmlns:dc="http://purl.org/dc/elements/1.1/" xmlns:inkscape="http://www.inkscape.org/namespaces/inkscape" xmlns:rdf="http://www.w3.org/1999/02/22-rdf-syntax-ns#" xmlns:sodipodi="http://sodipodi.sourceforge.net/DTD/sodipodi-0.dtd" xmlns:svg="http://www.w3.org/2000/svg"><defs id="defs4490"/><g id="layer1" transform="translate(0,-1016.3622)"><path d="m 7,1019.3622 22,0 c 1.11666,0 2,0.8834 2,2 l 0,5.0019 -26,0 0,-5.0019 c 0,-1.1166 0.88334,-2 2,-2 z m 0.5,1 c -0.27613,0 -0.49997,0.2239 -0.5,0.5 l 0,4 c 3e-5,0.2761 0.22387,0.5 0.5,0.5 l 6,0 c 0.27613,0 0.49997,-0.2239 0.5,-0.5 l 0,-4 c -3e-5,-0.2761 -0.22387,-0.5 -0.5,-0.5 z m 11.5,0 c -1.09865,0 -2,0.9014 -2,2 0,1.0987 0.90135,2 2,2 1.09865,0 2,-0.9013 2,-2 0,-1.0986 -0.90135,-2 -2,-2 z m -3.53515,0 c -0.26233,0.019 -0.4655,0.237 -0.46485,0.5 0,0.2761 0.22386,0.5 0.5,0.5 0.27614,0 0.5,-0.2239 0.5,-0.5 0,-0.2761 -0.22386,-0.5 -0.5,-0.5 -0.0117,-4e-4 -0.0234,-4e-4 -0.0351,0 z M 8,1021.3623 l 5,0 0,3 -5,0 z m 11,0 c 0.55821,0 1,0.4418 1,1 0,0.5582 -0.44179,1 -1,1 -0.55821,0 -1,-0.4418 -1,-1 0,-0.5582 0.44179,-1 1,-1 z m -3.53515,1.0019 c -0.26233,0.019 -0.4655,0.237 -0.46485,0.5 0,0.2761 0.22386,0.5 0.5,0.5 0.27614,0 0.5,-0.2239 0.5,-0.5 0,-0.2761 -0.22386,-0.5 -0.5,-0.5 -0.0117,-4e-4 -0.0234,-4e-4 -0.0351,0 z m 0,2 c -0.26233,0.019 -0.4655,0.237 -0.46485,0.5 0,0.2761 0.22386,0.5 0.5,0.5 0.27614,0 0.5,-0.2239 0.5,-0.5 0,-0.2761 -0.22386,-0.5 -0.5,-0.5 -0.0117,-4e-4 -0.0234,-4e-4 -0.0351,0 z m -10.46485,3 26,0 0,8.9981 0,9 0,2 -2,0 -22,0 -2,0 0,-2 0,-9 z m 13,0.9981 c -4.41235,0 -8.00001,3.5877 -8,8 -10e-6,4.4124 3.58765,8 8,8 4.41235,0 8.00001,-3.5876 8,-8 10e-6,-4.4123 -3.58765,-8 -8,-8 z m 0,1 c 3.87191,0 7,3.1281 7,7 0,3.8719 -3.12809,7 -7,7 -3.87191,0 -7,-3.1281 -7,-7 0,-3.8719 3.12809,-7 7,-7 z m 4.49219,3.9941 c -0.27537,0 -0.49542,0.2304 -0.49219,0.5059 l 0,5 c -0.01,0.6761 1.00956,0.6761 1,0 l 0,-5 c 0.003,-0.2815 -0.22632,-0.5103 -0.50781,-0.5059 z M 9,1048.3623 l 2,0 0,1 -2,0 z m 16,0 2,0 0,1 -2,0 z" id="path4279" style="font-size:medium;font-style:normal;font-variant:normal;font-weight:normal;font-stretch:normal;text-indent:0;text-align:start;text-decoration:none;line-height:normal;letter-spacing:normal;word-spacing:normal;text-transform:none;direction:ltr;block-progression:tb;writing-mode:lr-tb;text-anchor:start;baseline-shift:baseline;color:#000000;fill:#000000;fill-opacity:1;fill-rule:nonzero;stroke:none;visibility:visible;display:inline;overflow:visible;enable-background:accumulate;font-family:sans-serif"/></g></svg>