<?xml version="1.0" ?><svg height="36" id="svg4488" version="1.1" width="36" xmlns="http://www.w3.org/2000/svg" xmlns:cc="http://creativecommons.org/ns#" xmlns:dc="http://purl.org/dc/elements/1.1/" xmlns:inkscape="http://www.inkscape.org/namespaces/inkscape" xmlns:rdf="http://www.w3.org/1999/02/22-rdf-syntax-ns#" xmlns:sodipodi="http://sodipodi.sourceforge.net/DTD/sodipodi-0.dtd" xmlns:svg="http://www.w3.org/2000/svg"><defs id="defs4490"/><g id="layer1" transform="translate(0,-1016.3622)"><path d="m 14.5,1021.3622 0,3 1,0 0,-3 -1,0 z m 2,0 0,3 1,0 0,-3 -1,0 z m 2,0 0,3 1,0 0,-3 -1,0 z m 2,0 0,3 1,0 0,-3 -1,0 z m -6.5,4.0566 0,1 8,0 0,-1 -8,0 z m -2.5625,2 c -0.25102,0 -0.4375,0.1865 -0.4375,0.4375 l 0,13.125 c 0,0.2511 0.18648,0.4375 0.4375,0.4375 l 13.125,0 c 0.25103,0 0.4375,-0.1864 0.4375,-0.4375 l 0,-2.0625 0,-0.035 0,-8.9648 0,-0.01 0,-2.0547 c 0,-0.251 -0.18647,-0.4375 -0.4375,-0.4375 l -13.125,0 z m 2.52734,2.5 c 0.0117,-4e-4 0.0235,-4e-4 0.0352,0 0.27614,0 0.5,0.2239 0.5,0.5 0,0.2762 -0.22386,0.5 -0.5,0.5 -0.27614,0 -0.5,-0.2238 -0.5,-0.5 -6.5e-4,-0.2629 0.20251,-0.4815 0.46484,-0.5 z m 2,0 c 0.0117,-4e-4 0.0235,-4e-4 0.0352,0 0.27614,0 0.5,0.2239 0.5,0.5 0,0.2762 -0.22386,0.5 -0.5,0.5 -0.27614,0 -0.5,-0.2238 -0.5,-0.5 -6.5e-4,-0.2629 0.20251,-0.4815 0.46484,-0.5 z m 2,0 c 0.0117,-4e-4 0.0235,-4e-4 0.0352,0 0.27614,0 0.5,0.2239 0.5,0.5 0,0.2762 -0.22386,0.5 -0.5,0.5 -0.27614,0 -0.5,-0.2238 -0.5,-0.5 -6.5e-4,-0.2629 0.20251,-0.4815 0.46484,-0.5 z m 2,0 c 0.0117,-4e-4 0.0235,-4e-4 0.0352,0 0.27614,0 0.5,0.2239 0.5,0.5 0,0.2762 -0.22386,0.5 -0.5,0.5 -0.27614,0 -0.5,-0.2238 -0.5,-0.5 -6.5e-4,-0.2629 0.20251,-0.4815 0.46484,-0.5 z m 2,0 c 0.0117,-4e-4 0.0235,-4e-4 0.0352,0 0.27614,0 0.5,0.2239 0.5,0.5 0,0.2762 -0.22386,0.5 -0.5,0.5 -0.27614,0 -0.5,-0.2238 -0.5,-0.5 -6.5e-4,-0.2629 0.20251,-0.4815 0.46484,-0.5 z m -12.96484,0.5 0,8 1,0 0,-8 -1,0 z m 17,0 0,8 1,0 0,-8 -1,0 z m -21,0.4434 0,1 3,0 0,-1 -3,0 z m 23,0 0,1 3,0 0,-1 -3,0 z m -13.03516,1.0566 c 0.0117,-4e-4 0.0235,-4e-4 0.0352,0 0.27614,0 0.5,0.2239 0.5,0.5 0,0.2762 -0.22386,0.5 -0.5,0.5 -0.27614,0 -0.5,-0.2238 -0.5,-0.5 -6.5e-4,-0.2629 0.20251,-0.4815 0.46484,-0.5 z m 2,0 c 0.0117,-4e-4 0.0235,-4e-4 0.0352,0 0.27614,0 0.5,0.2239 0.5,0.5 0,0.2762 -0.22386,0.5 -0.5,0.5 -0.27614,0 -0.5,-0.2238 -0.5,-0.5 -6.5e-4,-0.2629 0.20251,-0.4815 0.46484,-0.5 z m 2,0 c 0.0117,-4e-4 0.0235,-4e-4 0.0352,0 0.27614,0 0.5,0.2239 0.5,0.5 0,0.2762 -0.22386,0.5 -0.5,0.5 -0.27614,0 -0.5,-0.2238 -0.5,-0.5 -6.5e-4,-0.2629 0.20251,-0.4815 0.46484,-0.5 z m 2,0 c 0.0117,-4e-4 0.0235,-4e-4 0.0352,0 0.27614,0 0.5,0.2239 0.5,0.5 0,0.2762 -0.22386,0.5 -0.5,0.5 -0.27614,0 -0.5,-0.2238 -0.5,-0.5 -6.5e-4,-0.2629 0.20251,-0.4815 0.46484,-0.5 z M 5,1032.8622 l 0,1 3,0 0,-1 -3,0 z m 23,0 0,1 3,0 0,-1 -3,0 z m -14.03516,1.0566 c 0.0117,-4e-4 0.0235,-4e-4 0.0352,0 0.27614,0 0.5,0.2239 0.5,0.5 0,0.2762 -0.22386,0.5 -0.5,0.5 -0.27614,0 -0.5,-0.2238 -0.5,-0.5 -6.5e-4,-0.2629 0.20251,-0.4815 0.46484,-0.5 z m 2,0 c 0.0117,-4e-4 0.0235,-4e-4 0.0352,0 0.27614,0 0.5,0.2239 0.5,0.5 0,0.2762 -0.22386,0.5 -0.5,0.5 -0.27614,0 -0.5,-0.2238 -0.5,-0.5 -6.5e-4,-0.2629 0.20251,-0.4815 0.46484,-0.5 z m 2,0 c 0.0117,-4e-4 0.0235,-4e-4 0.0352,0 0.27614,0 0.5,0.2239 0.5,0.5 0,0.2762 -0.22386,0.5 -0.5,0.5 -0.27614,0 -0.5,-0.2238 -0.5,-0.5 -6.5e-4,-0.2629 0.20251,-0.4815 0.46484,-0.5 z m 2,0 c 0.0117,-4e-4 0.0235,-4e-4 0.0352,0 0.27614,0 0.5,0.2239 0.5,0.5 0,0.2762 -0.22386,0.5 -0.5,0.5 -0.27614,0 -0.5,-0.2238 -0.5,-0.5 -6.5e-4,-0.2629 0.20251,-0.4815 0.46484,-0.5 z m 2,0 c 0.0117,-4e-4 0.0235,-4e-4 0.0352,0 0.27614,0 0.5,0.2239 0.5,0.5 0,0.2762 -0.22386,0.5 -0.5,0.5 -0.27614,0 -0.5,-0.2238 -0.5,-0.5 -6.5e-4,-0.2629 0.20251,-0.4815 0.46484,-0.5 z M 5,1034.8622 l 0,1 3,0 0,-1 -3,0 z m 23,0 0,1 3,0 0,-1 -3,0 z m -13.03516,1.0566 c 0.0117,-4e-4 0.0235,-4e-4 0.0352,0 0.27614,0 0.5,0.2239 0.5,0.5 0,0.2762 -0.22386,0.5 -0.5,0.5 -0.27614,0 -0.5,-0.2238 -0.5,-0.5 -6.5e-4,-0.2629 0.20251,-0.4815 0.46484,-0.5 z m 2,0 c 0.0117,-4e-4 0.0235,-4e-4 0.0352,0 0.27614,0 0.5,0.2239 0.5,0.5 0,0.2762 -0.22386,0.5 -0.5,0.5 -0.27614,0 -0.5,-0.2238 -0.5,-0.5 -6.5e-4,-0.2629 0.20251,-0.4815 0.46484,-0.5 z m 2,0 c 0.0117,-4e-4 0.0235,-4e-4 0.0352,0 0.27614,0 0.5,0.2239 0.5,0.5 0,0.2762 -0.22386,0.5 -0.5,0.5 -0.27614,0 -0.5,-0.2238 -0.5,-0.5 -6.5e-4,-0.2629 0.20251,-0.4815 0.46484,-0.5 z m 2,0 c 0.0117,-4e-4 0.0235,-4e-4 0.0352,0 0.27614,0 0.5,0.2239 0.5,0.5 0,0.2762 -0.22386,0.5 -0.5,0.5 -0.27614,0 -0.5,-0.2238 -0.5,-0.5 -6.5e-4,-0.2629 0.20251,-0.4815 0.46484,-0.5 z M 5,1036.8622 l 0,1 3,0 0,-1 -3,0 z m 23,0 0,1 3,0 0,-1 -3,0 z m -14.03516,1.0566 c 0.0117,-4e-4 0.0235,-4e-4 0.0352,0 0.27614,0 0.5,0.2239 0.5,0.5 0,0.2762 -0.22386,0.5 -0.5,0.5 -0.27614,0 -0.5,-0.2238 -0.5,-0.5 -6.5e-4,-0.2629 0.20251,-0.4815 0.46484,-0.5 z m 2,0 c 0.0117,-4e-4 0.0235,-4e-4 0.0352,0 0.27614,0 0.5,0.2239 0.5,0.5 0,0.2762 -0.22386,0.5 -0.5,0.5 -0.27614,0 -0.5,-0.2238 -0.5,-0.5 -6.5e-4,-0.2629 0.20251,-0.4815 0.46484,-0.5 z m 2,0 c 0.0117,-4e-4 0.0235,-4e-4 0.0352,0 0.27614,0 0.5,0.2239 0.5,0.5 0,0.2762 -0.22386,0.5 -0.5,0.5 -0.27614,0 -0.5,-0.2238 -0.5,-0.5 -6.5e-4,-0.2629 0.20251,-0.4815 0.46484,-0.5 z m 2,0 c 0.0117,-4e-4 0.0235,-4e-4 0.0352,0 0.27614,0 0.5,0.2239 0.5,0.5 0,0.2762 -0.22386,0.5 -0.5,0.5 -0.27614,0 -0.5,-0.2238 -0.5,-0.5 -6.5e-4,-0.2629 0.20251,-0.4815 0.46484,-0.5 z m 2,0 c 0.0117,-4e-4 0.0235,-4e-4 0.0352,0 0.27614,0 0.5,0.2239 0.5,0.5 0,0.2762 -0.22386,0.5 -0.5,0.5 -0.27614,0 -0.5,-0.2238 -0.5,-0.5 -6.5e-4,-0.2629 0.20251,-0.4815 0.46484,-0.5 z m -7.96484,4.5 0,1 8,0 0,-1 -8,0 z m 0.5,1.9434 0,3 1,0 0,-3 -1,0 z m 2,0 0,3 1,0 0,-3 -1,0 z m 2,0 0,3 1,0 0,-3 -1,0 z m 2,0 0,3 1,0 0,-3 -1,0 z" id="path7756" style="font-size:medium;font-style:normal;font-variant:normal;font-weight:normal;font-stretch:normal;text-indent:0;text-align:start;text-decoration:none;line-height:normal;letter-spacing:normal;word-spacing:normal;text-transform:none;direction:ltr;block-progression:tb;writing-mode:lr-tb;text-anchor:start;baseline-shift:baseline;color:#000000;fill:#000000;fill-opacity:1;fill-rule:nonzero;stroke:none;visibility:visible;display:inline;overflow:visible;enable-background:accumulate;font-family:sans-serif"/></g></svg>