<?xml version="1.0" encoding="iso-8859-1"?>
<!-- Generator: Adobe Illustrator 19.1.0, SVG Export Plug-In . SVG Version: 6.00 Build 0)  -->
<svg version="1.1" id="Capa_1" xmlns="http://www.w3.org/2000/svg" xmlns:xlink="http://www.w3.org/1999/xlink" x="0px" y="0px"
	 viewBox="0 0 64 64" style="enable-background:new 0 0 64 64;" xml:space="preserve">
<g>
	<g>
		<g id="group-12svg">
			<path id="path-1_2_" d="M55.808,58.5H2.858C0.436,58.5,0,56.943,0,55.486v-1.085C0,52.525,0.829,50.5,2.858,50.5h4.689
				c0.543-0.707,1.581-2.885,2.368-5.004c1.012-3.209,1.012-6.677-0.024-9.956c-0.77-2.105-1.808-4.319-2.352-5.04H5.073
				C4.245,30.5,4,29.829,4,29V8.639C4,6.761,4.921,5.5,6.926,5.5h48.882C57.989,5.5,60,6.82,60,8.639v6.169
				c0,1.898-2.257,3.692-4.192,3.692H27.299C26.898,18.5,27,18.707,27,18.842v30.509c0,0.012-0.145,0.149,0.299,0.149h28.509
				c1.9,0,4.192,1.924,4.192,3.884v2.102C60,57.289,58.06,58.5,55.808,58.5z M3,55.482c0,0.01-0.268,0.018-0.142,0.018h52.95
				c0.376,0,0.192-0.069,1.192-0.126v-1.99c0-0.318-0.943-0.866-1.195-0.884H27.299C25.14,52.5,24,51.175,24,49.351V18.842
				c0-1.874,1.21-3.342,3.299-3.342h28.509c0.307,0,1.192-0.454,1.192-0.692V8.639C57,8.63,56.243,8.5,55.808,8.5H6.926
				c-0.182,0-0.083,0.026-0.137,0.046C6.79,8.562,7,8.594,7,8.639V27.5h0.977c0.759,0,2.173,0,4.753,7.074
				c1.244,3.933,1.244,8.025,0.022,11.896c-2.608,7.03-4.018,7.03-4.775,7.03H2.858C2.796,53.556,3,53.956,3,54.401V55.482z"/>
			<path id="path-2_2_" d="M48.137,48.5h-7.516C34.986,48.5,31,43.804,31,37.808V27c0-0.829,0.245-1.5,1.073-1.5h25
				C57.901,25.5,59,26.171,59,27v10.808C59,43.704,53.892,48.5,48.137,48.5z M34,28.5v9.308c0,4.313,2.669,7.692,6.621,7.692h7.516
				c4.1,0,7.863-3.451,7.863-7.692V28.5H34z"/>
			<path id="path-3_2_" d="M62.5,42c-0.828,0-1.5-0.671-1.5-1.5v-8h-2.427c-0.828,0-1.5-0.671-1.5-1.5s0.672-1.5,1.5-1.5h3.5
				C62.901,29.5,64,30.171,64,31v9.5C64,41.329,63.328,42,62.5,42z"/>
			<path id="path-4_2_" d="M44.5,28c-0.828,0-1.5-0.671-1.5-1.5v-4c0-0.829,0.672-1.5,1.5-1.5s1.5,0.671,1.5,1.5v4
				C46,27.329,45.328,28,44.5,28z"/>
			<path id="path-5_2_" d="M46.192,23.5h-3.627C40.588,23.5,39,21.551,39,19.639V17c0-0.829,0.245-1.5,1.073-1.5h8
				C48.901,15.5,50,16.171,50,17v2.639C50,21.503,48.215,23.5,46.192,23.5z M42,18.5v1.139c0,0.289,0.255,0.853,0.566,0.861h3.615
				C46.316,20.441,47,20.041,47,19.639V18.5H42z"/>
		</g>
	</g>
	<g>
	</g>
	<g>
	</g>
	<g>
	</g>
	<g>
	</g>
	<g>
	</g>
	<g>
	</g>
	<g>
	</g>
	<g>
	</g>
	<g>
	</g>
	<g>
	</g>
	<g>
	</g>
	<g>
	</g>
	<g>
	</g>
	<g>
	</g>
	<g>
	</g>
</g>
<g>
</g>
<g>
</g>
<g>
</g>
<g>
</g>
<g>
</g>
<g>
</g>
<g>
</g>
<g>
</g>
<g>
</g>
<g>
</g>
<g>
</g>
<g>
</g>
<g>
</g>
<g>
</g>
<g>
</g>
</svg>
