<?xml version="1.0" ?><svg height="36" id="svg4488" version="1.1" width="36" xmlns="http://www.w3.org/2000/svg" xmlns:cc="http://creativecommons.org/ns#" xmlns:dc="http://purl.org/dc/elements/1.1/" xmlns:inkscape="http://www.inkscape.org/namespaces/inkscape" xmlns:rdf="http://www.w3.org/1999/02/22-rdf-syntax-ns#" xmlns:sodipodi="http://sodipodi.sourceforge.net/DTD/sodipodi-0.dtd" xmlns:svg="http://www.w3.org/2000/svg"><defs id="defs4490"/><g id="layer1" transform="translate(0,-1016.3622)"><g id="g4859" transform="translate(580.99936,-263.99187)"><path d="m 537.21484,607.21094 c 6.08105,0 11,4.919 11,11 0,6.0811 -4.91895,11 -11,11 -6.08105,0 -11,-4.9189 -11,-11 0,-6.081 4.91895,-11 11,-11 z m 1.36328,1 c -0.57394,0 -1.14164,0.0251 -1.625,0.0781 -0.48335,0.053 -0.84716,0.0921 -1.1875,0.28906 -0.75597,0.43641 -1.09691,1.34337 -1.11132,2.41407 -0.0144,1.0706 0.27992,2.3686 0.90039,3.8164 0.0938,0.22013 0.33044,0.34295 0.56445,0.29297 0.90568,-0.1935 1.34917,-0.2015 2.17969,0 0.36838,0.0882 0.69728,-0.24924 0.59961,-0.61523 -0.15167,-0.5661 -0.0536,-1.10776 0.20312,-1.66016 0.2567,-0.5525 0.67666,-1.09457 1.10938,-1.57617 0.43272,-0.4816 0.87157,-0.89645 1.1875,-1.25195 0.15797,-0.1777 0.2905,-0.32594 0.38281,-0.55274 0.0462,-0.1134 0.0883,-0.26878 0.041,-0.45508 -0.0473,-0.1863 -0.20139,-0.34646 -0.33789,-0.41796 -0.005,-0.003 -0.0104,-0.007 -0.0156,-0.01 -0.33897,-0.1619 -0.73848,-0.21908 -1.23828,-0.27148 -0.49979,-0.053 -1.07842,-0.0781 -1.65235,-0.0781 z m 0,1 c 0.54414,0 1.09416,0.0253 1.54688,0.0723 0.23951,0.025 0.31768,0.0597 0.48242,0.0957 -0.26598,0.2935 -0.69281,0.70082 -1.14062,1.19921 -0.46575,0.5184 -0.94735,1.12467 -1.27149,1.82227 -0.2389,0.5141 -0.21975,1.12421 -0.19336,1.72461 -0.52489,-0.079 -1.05158,-0.083 -1.59765,0 -0.47938,-1.2097 -0.76072,-2.32039 -0.75,-3.11719 0.0117,-0.8711 0.27185,-1.36454 0.61132,-1.56054 0.006,0 0.36433,-0.11491 0.79688,-0.16211 0.43254,-0.047 0.9715,-0.0723 1.51562,-0.0723 z m -10.35351,4.4707 c -0.07,-0.004 -0.14704,10e-4 -0.23438,0.0234 -0.14027,0.0364 -0.25784,0.1319 -0.32226,0.26172 -0.024,0.031 -0.0775,0.0442 -0.0937,0.0742 -0.003,0.006 -0.007,0.013 -0.01,0.0195 -0.16183,0.3389 -0.219,0.73858 -0.27148,1.23828 -0.0525,0.4997 -0.0781,1.07649 -0.0781,1.65039 0,0.574 0.0254,1.14345 0.0781,1.62695 0.0528,0.4834 0.0925,0.847 0.28906,1.1875 0.43646,0.7559 1.34339,1.09693 2.41406,1.11133 1.07067,0.014 2.36864,-0.28184 3.81641,-0.90234 0.20084,-0.0868 0.3219,-0.29414 0.29883,-0.51172 -0.0783,-0.7336 -0.24459,-1.06565 -0.008,-2.24805 0.0734,-0.36359 -0.26077,-0.67769 -0.61914,-0.58203 -1.06135,0.2845 -2.12363,-0.34929 -3.05274,-1.15039 -0.46456,-0.4006 -0.87648,-0.82791 -1.22852,-1.16211 -0.17601,-0.1672 -0.3349,-0.31103 -0.50195,-0.42774 -0.12529,-0.0874 -0.26663,-0.19661 -0.47656,-0.20898 z m 0.15625,1.24805 c 0.0492,0.044 0.0766,0.062 0.13281,0.11523 0.32593,0.3095 0.75837,0.75401 1.26563,1.19141 0.87053,0.7506 2.04857,1.36724 3.34375,1.30664 -0.0624,0.6589 -0.0607,1.19058 -0.004,1.58398 -1.20596,0.4769 -2.31457,0.75875 -3.10937,0.74805 -0.87121,-0.012 -1.36648,-0.27183 -1.5625,-0.61133 -0.003,-0.01 -0.11294,-0.36427 -0.16016,-0.79687 -0.0472,-0.4327 -0.0723,-0.97348 -0.0723,-1.51758 0,-0.5441 0.0247,-1.09428 0.0723,-1.54688 0.0247,-0.2351 0.0585,-0.30905 0.0937,-0.47265 z m 8.83398,0.71679 c -1.41079,0 -2.56446,1.15366 -2.56445,2.56446 -10e-6,1.4108 1.15366,2.5664 2.56445,2.5664 1.4108,0 2.56447,-1.1556 2.56446,-2.5664 10e-6,-1.4108 -1.15366,-2.56446 -2.56446,-2.56446 z m 7.21875,0.0918 c -1.07065,-0.014 -2.36866,0.27989 -3.8164,0.90039 -0.23353,0.10044 -0.35453,0.3601 -0.28125,0.60352 0.19792,0.6681 0.0558,1.39863 -0.0195,2.21093 -0.0321,0.34653 0.29072,0.61911 0.62695,0.5293 0.56606,-0.1517 1.10773,-0.052 1.66016,0.20508 0.55244,0.2567 1.0965,0.67472 1.57812,1.10742 0.48161,0.4327 0.89651,0.8716 1.25195,1.1875 0.17772,0.158 0.32594,0.29051 0.55274,0.38281 0.11341,0.046 0.26681,0.088 0.45312,0.041 0.18631,-0.047 0.34636,-0.20149 0.41797,-0.33789 0.003,-0.005 0.005,-0.0104 0.008,-0.0156 0.16183,-0.3388 0.21901,-0.73858 0.27149,-1.23828 0.0525,-0.4996 0.0781,-1.07649 0.0781,-1.65039 0,-0.574 -0.0254,-1.14345 -0.0781,-1.62695 -0.0528,-0.4835 -0.0925,-0.8471 -0.28906,-1.1875 -0.43653,-0.756 -1.34337,-1.09693 -2.41407,-1.11133 z m -7.21875,0.9082 c 0.87036,0 1.56447,0.69416 1.56446,1.56446 10e-6,0.8704 -0.6941,1.5664 -1.56446,1.5664 -0.87035,0 -1.56446,-0.696 -1.56445,-1.5664 -10e-6,-0.8703 0.6941,-1.56446 1.56445,-1.56446 z m 7.20508,0.0918 c 0.87118,0.012 1.36655,0.27193 1.5625,0.61133 0.003,0.01 0.11294,0.36417 0.16016,0.79687 0.0472,0.4327 0.0723,0.97338 0.0723,1.51758 0,0.5441 -0.0247,1.09428 -0.0723,1.54688 -0.025,0.2379 -0.0581,0.31421 -0.0937,0.47851 -0.29351,-0.266 -0.70122,-0.69127 -1.19922,-1.13867 -0.51839,-0.4658 -1.12666,-0.94738 -1.82422,-1.27148 -0.51182,-0.2378 -1.11928,-0.21806 -1.7168,-0.19336 0.0586,-0.4845 0.0595,-1.02181 -0.01,-1.59571 1.21173,-0.4807 2.32321,-0.76265 3.12109,-0.75195 z m -8.41601,4.57227 0,0.002 c -0.31772,0.0165 -0.53944,0.32162 -0.45703,0.62891 0.15166,0.566 0.0536,1.10765 -0.20313,1.66015 -0.25671,0.5524 -0.67666,1.09457 -1.10937,1.57617 -0.43273,0.4816 -0.87157,0.89646 -1.1875,1.25196 -0.15797,0.1777 -0.29052,0.32593 -0.38282,0.55273 -0.0462,0.1134 -0.0883,0.26878 -0.041,0.45508 0.0473,0.1863 0.20141,0.34627 0.33789,0.41797 0.006,0.003 0.0117,0.007 0.0176,0.01 0.33881,0.1618 0.73664,0.21899 1.23632,0.27149 0.49968,0.052 1.07644,0.0762 1.65039,0.0762 0.57395,0 1.1435,-0.0232 1.62696,-0.0762 0.48346,-0.053 0.84709,-0.093 1.1875,-0.28906 0.75595,-0.4365 1.09692,-1.34337 1.11133,-2.41407 0.0144,-1.0706 -0.27992,-2.3687 -0.9004,-3.8164 -0.0937,-0.21928 -0.32913,-0.34192 -0.5625,-0.29297 -0.8632,0.1819 -1.48193,0.1796 -2.17578,0 -0.0485,-0.0119 -0.0985,-0.0165 -0.14843,-0.0137 z m 0.43945,0.98633 c 0.51039,0.076 1.03948,0.082 1.59766,0 0.47883,1.2089 0.76072,2.32078 0.75,3.11718 -0.0117,0.8712 -0.27183,1.36455 -0.61133,1.56055 -0.006,0 -0.36421,0.11491 -0.79688,0.16211 -0.43267,0.047 -0.97343,0.0703 -1.51758,0.0703 -0.54414,0 -1.09231,-0.0253 -1.54492,-0.0723 -0.23843,-0.025 -0.316,-0.0578 -0.48047,-0.0937 0.26604,-0.2935 0.69124,-0.70122 1.13868,-1.19922 0.46576,-0.5184 0.94733,-1.12672 1.27148,-1.82422 0.23838,-0.51298 0.21965,-1.12157 0.19336,-1.7207 z m -0.22852,7.91406 2.00196,0 0,3.98633 -2.00196,0 z m -4.19922,3.98633 0.29297,0 0.69336,0 0.69336,0 0.69531,0 0.69336,0 0.13086,0 0,0.5 c 3e-5,0.27613 0.22387,0.49997 0.5,0.5 l 3.00196,0 c 0.27613,-3e-5 0.49997,-0.22387 0.5,-0.5 l 0,-0.5 0.0293,0 0.69336,0 0.69336,0 0.69531,0 0.69336,0 0.30274,0 0.75,3 -11.73438,0 z" id="circle4861" style="font-size:medium;font-style:normal;font-variant:normal;font-weight:normal;font-stretch:normal;text-indent:0;text-align:start;text-decoration:none;line-height:normal;letter-spacing:normal;word-spacing:normal;text-transform:none;direction:ltr;block-progression:tb;writing-mode:lr-tb;text-anchor:start;baseline-shift:baseline;color:#000000;fill:#000000;fill-opacity:1;fill-rule:nonzero;stroke:none;visibility:visible;display:inline;overflow:visible;enable-background:accumulate;font-family:sans-serif" transform="translate(-1100.2142,676.14997)"/><path d="m -559.28257,1294.3622 a 3.7173862,3.7173861 0 0 1 -3.71738,3.7174 3.7173862,3.7173861 0 0 1 -3.71739,-3.7174 3.7173862,3.7173861 0 0 1 3.71739,-3.7174 3.7173862,3.7173861 0 0 1 3.71738,3.7174 z" id="path4863" style="fill:none;stroke:#000000;stroke-width:1;stroke-linecap:round;stroke-linejoin:round;stroke-miterlimit:4;stroke-opacity:1;stroke-dasharray:none"/></g></g></svg>