<?xml version="1.0" encoding="iso-8859-1"?>
<!-- Generator: Adobe Illustrator 19.1.0, SVG Export Plug-In . SVG Version: 6.00 Build 0)  -->
<svg version="1.1" id="Capa_1" xmlns="http://www.w3.org/2000/svg" xmlns:xlink="http://www.w3.org/1999/xlink" x="0px" y="0px"
	 viewBox="0 0 382.013 382.013" style="enable-background:new 0 0 382.013 382.013;" xml:space="preserve">
<g>
	<g>
		<path d="M378.684,115.239c-4.941-9.347-14.542-15.153-25.061-15.153h-44.467V84.907c0-18.413-14.924-33.338-33.338-33.338h-33.338
			v-7.106c0-18.821-18.286-35.324-36.139-35.324h-49.357c-17.777,0-29.67,15.841-29.67,35.324v7.106H81.829
			c-18.413,0-33.338,14.924-33.338,33.338v27.276H28.804C10.62,112.208,0,122.701,0,137.192v58.729
			c0,15.892,12.963,31.453,28.804,31.453h19.687v112.161c0,18.413,14.924,33.338,33.338,33.338h193.99
			c18.413,0,33.338-14.924,33.338-33.338v-95.709c0.153-0.178,0.382-0.255,0.509-0.458l67.414-98.689
			C383.014,135.919,383.651,124.662,378.684,115.239z M145.473,44.463c0-8.099,3.184-17.14,11.486-17.14h49.383
			c7.895,0,17.929,8.328,17.929,17.14v7.106h-78.798V44.463z M28.804,209.191c-5.807,0-10.62-7.437-10.62-13.269v-58.729
			c0-4.686,5.145-6.825,10.62-6.825h19.687v78.798H28.804V209.191z M290.972,339.536c0,8.354-6.8,15.154-15.154,15.154H81.829
			c-8.379,0-15.153-6.8-15.153-15.154V218.283V121.3V84.907c0-8.379,6.8-15.153,15.153-15.153h51.98h97.008h45.027
			c8.354,0,15.154,6.775,15.154,15.153v254.629H290.972z M362.054,134.416l-50.529,73.985l0.815-90.157h41.284
			c3.82,0,7.157,2.063,8.99,5.476C364.448,127.234,364.244,131.233,362.054,134.416z"/>
		<path d="M230.358,275.968V154.536c0-1.554-0.637-2.852-0.866-4.33c-2.19-14.542-14.211-25.876-29.365-25.876h-18.362
			c-16.682,0-30.231,13.524-30.231,30.231v121.432c0,16.682,13.524,30.231,30.231,30.231h6.469h11.868
			C216.835,306.173,230.358,292.649,230.358,275.968z M169.745,275.968V154.536c0-6.647,5.374-12.046,12.046-12.046h18.362
			c4.431,0,8.124,2.521,10.213,6.061c1.019,1.808,1.783,3.769,1.783,5.985v18.795c-0.84-0.255-1.655-0.535-2.598-0.535h-18.159
			c-5.017,0-9.092,4.075-9.092,9.092c0,5.017,4.075,9.118,9.092,9.118h18.159c0.917,0,1.732-0.28,2.598-0.535V209.7
			c-0.84-0.255-1.655-0.535-2.598-0.535h-18.159c-5.017,0-9.092,4.075-9.092,9.092s4.075,9.067,9.092,9.067h18.159
			c0.917,0,1.732-0.28,2.598-0.535v13.192c-0.84-0.255-1.655-0.535-2.598-0.535h-18.159c-5.017,0-9.092,4.075-9.092,9.092
			c0,5.017,4.075,9.067,9.092,9.067h18.159c0.917,0,1.732-0.28,2.598-0.535v18.795c0,6.647-5.374,12.046-12.021,12.046h-18.261
			h-0.102C175.118,288.014,169.745,282.615,169.745,275.968z"/>
	</g>
</g>
<g>
</g>
<g>
</g>
<g>
</g>
<g>
</g>
<g>
</g>
<g>
</g>
<g>
</g>
<g>
</g>
<g>
</g>
<g>
</g>
<g>
</g>
<g>
</g>
<g>
</g>
<g>
</g>
<g>
</g>
</svg>
