<?xml version="1.0" ?><svg height="36" id="svg4488" version="1.1" width="36" xmlns="http://www.w3.org/2000/svg" xmlns:cc="http://creativecommons.org/ns#" xmlns:dc="http://purl.org/dc/elements/1.1/" xmlns:inkscape="http://www.inkscape.org/namespaces/inkscape" xmlns:rdf="http://www.w3.org/1999/02/22-rdf-syntax-ns#" xmlns:sodipodi="http://sodipodi.sourceforge.net/DTD/sodipodi-0.dtd" xmlns:svg="http://www.w3.org/2000/svg"><defs id="defs4490"/><g id="layer1" transform="translate(0,-1016.3622)"><path d="m 23.36136,1027.3954 -0.26758,0.6719 c -0.0761,0.1928 -0.26338,0.3184 -0.4707,0.3164 0,0 -1.20901,-0.015 -2.5,-0.023 -1.29559,-0.01 -0.99834,-0.017 -2.35352,-0.025 -1.35191,-0.01 -2.63927,-0.015 -3.67187,-0.018 -2.39736,0.045 -4.09492,0.86 -5.64844,2.3554 -1.39556,1.3435 -2.66631,3.3266 -4.05469,5.6895 l 18.10547,0 2.54688,0 0.90039,-8.9668 -2.58594,0 z m -7.06836,1.9668 0.0117,0 c 2.40149,0.01 6.13867,0.043 6.13867,0.043 0.2976,0 0.52709,0.263 0.49219,0.5586 l -0.58008,4.957 c -0.0297,0.2516 -0.24281,0.4412 -0.49609,0.4414 l -11.69532,0 c -0.38863,-6e-4 -0.62804,-0.4248 -0.42773,-0.7578 0.92542,-1.5282 1.74688,-2.8025 2.75781,-3.7305 1.01093,-0.9279 2.23549,-1.4837 3.79883,-1.5117 z m 0.0195,1 c -1.34791,0.024 -2.27229,0.4492 -3.14258,1.248 -0.6819,0.626 -1.33643,1.6762 -2.01953,2.752 l 2.84961,0 0,-0.5 c 0,-0.8224 0.67765,-1.5 1.5,-1.5 l 2,0 c 0.82235,0 1.5,0.6776 1.5,1.5 l 0,0.5 2.41406,0 0.46485,-3.9609 c -0.5775,0 -3.38717,-0.03 -5.56641,-0.039 z m -0.8125,3 c -0.28565,0 -0.5,0.2143 -0.5,0.5 l 0,0.5 3,0 0,-0.5 c 0,-0.2857 -0.21435,-0.5 -0.5,-0.5 l -2,0 z m 10.85352,0 -0.19922,3 0.8457,0 0.0996,-3 -0.74609,0 z m 1.76562,1 0,1 2.88086,0 c 0.375,0 0.59359,0.1226 0.75195,0.3008 0.15837,0.1781 0.24805,0.4353 0.24805,0.6992 0,0.2639 -0.0897,0.5211 -0.24805,0.6992 -0.15836,0.1782 -0.37695,0.3008 -0.75195,0.3008 l -2,0 c -0.625,0 -1.15641,0.2524 -1.49805,0.6367 -0.34163,0.3844 -0.50195,0.8772 -0.50195,1.3633 0,0.4861 0.16032,0.9789 0.50195,1.3633 0.34164,0.3843 0.87305,0.6367 1.49805,0.6367 l 2,0 1,0 0,-1 -1,0 -2,0 c -0.375,0 -0.59359,-0.1226 -0.75195,-0.3008 -0.15834,-0.1781 -0.24802,-0.4353 -0.24802,-0.6992 0,-0.2639 0.0897,-0.5211 0.24805,-0.6992 0.15836,-0.1782 0.37695,-0.3008 0.75195,-0.3008 l 2,0 c 0.625,0 1.15641,-0.2524 1.49805,-0.6367 0.34163,-0.3844 0.50195,-0.8772 0.50195,-1.3633 0,-0.4861 -0.16032,-0.9789 -0.50195,-1.3633 -0.34164,-0.3843 -0.87305,-0.6367 -1.49805,-0.6367 l -2.88086,0 z m -24.11914,3 0,1 18,0 0,-1 -18,0 z" id="path8474" style="font-size:medium;font-style:normal;font-variant:normal;font-weight:normal;font-stretch:normal;text-indent:0;text-align:start;text-decoration:none;line-height:normal;letter-spacing:normal;word-spacing:normal;text-transform:none;direction:ltr;block-progression:tb;writing-mode:lr-tb;text-anchor:start;baseline-shift:baseline;color:#000000;fill:#000000;fill-opacity:1;fill-rule:nonzero;stroke:none;visibility:visible;display:inline;overflow:visible;enable-background:accumulate;font-family:sans-serif"/></g></svg>