<?xml version="1.0" encoding="iso-8859-1"?>
<!-- Generator: Adobe Illustrator 19.1.0, SVG Export Plug-In . SVG Version: 6.00 Build 0)  -->
<svg version="1.1" id="Capa_1" xmlns="http://www.w3.org/2000/svg" xmlns:xlink="http://www.w3.org/1999/xlink" x="0px" y="0px"
	 viewBox="0 0 63 63" style="enable-background:new 0 0 63 63;" xml:space="preserve">
<g>
	<g>
		<g id="group-24svg">
			<path id="path-1_15_" d="M51.378,63H6.188c-2.877,0-4.974-2.594-4.974-5.551v-0.266C1.214,54.382,3.196,51,6.188,51h3.471
				l8.583-31.342c0.09-0.389,0.027-0.76-0.202-1.048C17.737,18.228,17.161,18,16.498,18h-5.052c-4.937,0-8.66-3.823-8.66-8.892
				C2.787,3.959,6.591,0,11.447,0h42.68c4.653,0,7.66,3.556,7.66,9.06c0,5.45-3.007,8.94-7.66,8.94H33.174
				c-0.343,0-1.479,0.082-1.729,1.145L23.14,49.366c-0.089,0.382-0.028,0.747,0.195,1.029c0.3,0.379,0.878,0.605,1.547,0.605h26.495
				c3.029,0,4.836,3.265,4.836,6.298v0.186C56.215,60.835,54.056,63,51.378,63z M6.188,54c-1.078,0-1.974,1.755-1.974,3.183v0.266
				C4.214,58.736,4.977,60,6.188,60h45.19c1.271,0,1.836-1.759,1.836-2.516v-0.186c0-1.56-1.006-3.298-1.836-3.298H24.882
				c-1.601,0-3.023-0.635-3.9-1.743c-0.797-1.007-1.064-2.297-0.749-3.632l8.305-30.221C29.01,16.39,30.878,15,33.174,15h20.953
				c4.206,0,4.66-4.121,4.66-5.892c0-1.469-0.336-6.108-4.66-6.108h-42.68c-3.226,0-5.66,2.585-5.66,6.013
				c0,3.509,2.381,5.987,5.66,5.987h5.052c1.595,0,3.014,0.637,3.893,1.747c0.803,1.014,1.072,2.31,0.757,3.65L12.25,52.896
				C12.072,53.548,11.48,54,10.804,54H6.188z"/>
			<path id="path-2_15_" d="M46.771,25h-9c-1.924,0-3.558-1.344-3.558-3.345V16.5c0-0.829,0.245-1.5,1.073-1.5h13
				c0.828,0,1.927,0.671,1.927,1.5v5.155C50.215,24.122,48.229,25,46.771,25z M37.215,18v3.655c0,0.072,0.106,0.345,0.558,0.345
				h8.988c0.014-0.073,0.454-0.184,0.454-0.345V18H37.215z"/>
			<path id="path-3_15_" d="M47.771,51h-9c-5.413,0-9.558-4.279-9.558-9.345V31.5c0-0.829,0.245-1.5,1.073-1.5h25
				c0.828,0,1.927,0.671,1.927,1.5v10.155C57.215,46.982,52.91,51,47.771,51z M32.215,33v8.655c0,3.439,2.771,6.345,6.558,6.345h9
				c3.485,0,6.442-2.668,6.442-6.345V33H32.215z"/>
			<path id="path-4_15_" d="M42.715,45.5c-0.828,0-1.5-0.671-1.5-1.5V24c0-0.829,0.672-1.5,1.5-1.5s1.5,0.671,1.5,1.5v20
				C44.215,44.829,43.542,45.5,42.715,45.5z"/>
			<path id="path-5_15_" d="M42.306,48.235c-3.425,0-6.109-4.233-6.109-9.635c0-6.077,3.556-6.077,5.909-6.077
				c2.359,0,6.307,0,6.307,6.077C48.412,44.002,45.73,48.235,42.306,48.235z M42.105,35.523c-2.408,0-2.909,0-2.909,3.077
				c0,3.797,1.641,6.635,3.109,6.635c1.467,0,3.107-2.838,3.107-6.635C45.412,35.523,44.579,35.523,42.105,35.523z"/>
			<path id="path-6_14_" d="M50.493,14.028c-2.752,0-4.99-2.238-4.99-4.989c0-2.752,2.238-4.99,4.99-4.99
				c2.751,0,4.99,2.238,4.99,4.99C55.482,11.79,53.243,14.028,50.493,14.028z M50.493,7.049c-1.097,0-1.99,0.892-1.99,1.99
				c0,1.097,0.893,1.989,1.99,1.989s1.989-0.892,1.989-1.989C52.481,7.941,51.59,7.049,50.493,7.049z"/>
		</g>
	</g>
	<g>
	</g>
	<g>
	</g>
	<g>
	</g>
	<g>
	</g>
	<g>
	</g>
	<g>
	</g>
	<g>
	</g>
	<g>
	</g>
	<g>
	</g>
	<g>
	</g>
	<g>
	</g>
	<g>
	</g>
	<g>
	</g>
	<g>
	</g>
	<g>
	</g>
</g>
<g>
</g>
<g>
</g>
<g>
</g>
<g>
</g>
<g>
</g>
<g>
</g>
<g>
</g>
<g>
</g>
<g>
</g>
<g>
</g>
<g>
</g>
<g>
</g>
<g>
</g>
<g>
</g>
<g>
</g>
</svg>
