<?xml version="1.0" ?><svg height="36" id="svg4488" version="1.1" width="36" xmlns="http://www.w3.org/2000/svg" xmlns:cc="http://creativecommons.org/ns#" xmlns:dc="http://purl.org/dc/elements/1.1/" xmlns:inkscape="http://www.inkscape.org/namespaces/inkscape" xmlns:rdf="http://www.w3.org/1999/02/22-rdf-syntax-ns#" xmlns:sodipodi="http://sodipodi.sourceforge.net/DTD/sodipodi-0.dtd" xmlns:svg="http://www.w3.org/2000/svg"><defs id="defs4490"/><g id="layer1" transform="translate(0,-1016.3622)"><g id="g4303" transform="translate(605.014,-117.99871)"><path d="m 505.21484,461.21094 15.97071,0 c 1.11666,0 2,0.8834 2,2 l 0,6 -19.97071,0 0,-6 c 0,-1.1166 0.88334,-2 2,-2 z m 0.49805,1 c -0.27613,3e-5 -0.49997,0.22387 -0.5,0.5 l 0,3 c 3e-5,0.27613 0.22387,0.49997 0.5,0.5 l 4,0 c 0.27613,-3e-5 0.49997,-0.22387 0.5,-0.5 l 0,-3 c -3e-5,-0.27613 -0.22387,-0.49997 -0.5,-0.5 z m 7.5,0 c -1.09865,0 -2,0.9014 -2,2 0,1.0987 0.90135,2 2,2 1.09864,0 2,-0.9013 2,-2 0,-1.0986 -0.90136,-2 -2,-2 z m -7,1 3,0 0,2 -3,0 z m 7,0 c 0.5582,0 1,0.4418 1,1 0,0.5582 -0.4418,1 -1,1 -0.55821,0 -1,-0.4418 -1,-1 0,-0.5582 0.44179,-1 1,-1 z m -7.53516,4.00195 c -0.26232,0.0185 -0.46549,0.23703 -0.46484,0.5 0,0.27614 0.22386,0.5 0.5,0.5 0.27614,0 0.5,-0.22386 0.5,-0.5 0,-0.27614 -0.22386,-0.5 -0.5,-0.5 -0.0117,-4.1e-4 -0.0234,-4.1e-4 -0.0352,0 z m 2,0 c -0.26232,0.0185 -0.46549,0.23703 -0.46484,0.5 0,0.27614 0.22386,0.5 0.5,0.5 0.27614,0 0.5,-0.22386 0.5,-0.5 0,-0.27614 -0.22386,-0.5 -0.5,-0.5 -0.0117,-4.1e-4 -0.0234,-4.1e-4 -0.0352,0 z m 2,0 c -0.26232,0.0185 -0.46549,0.23703 -0.46484,0.5 0,0.27614 0.22386,0.5 0.5,0.5 0.27614,0 0.5,-0.22386 0.5,-0.5 0,-0.27614 -0.22386,-0.5 -0.5,-0.5 -0.0117,-4.1e-4 -0.0234,-4.1e-4 -0.0352,0 z m -6.46289,2.99805 19.97071,0 0,8 0,9 c 0,0.8773 -0.2878,1.31596 -0.66602,1.60156 -0.37823,0.2856 -0.90145,0.39844 -1.33398,0.39844 l -2.91993,0 0,-1 c 0,-0.592 -0.17588,-1.12453 -0.55664,-1.48633 -0.38075,-0.3618 -0.91276,-0.51367 -1.49609,-0.51367 l -0.71094,0 -2.26172,0 -2.26367,0 -0.76367,0 c -0.58334,0 -1.11067,0.15368 -1.47851,0.52148 -0.36785,0.3679 -0.52149,0.89522 -0.52149,1.47852 l 0,1 -2.99805,0 c -0.87597,0 -1.31287,-0.29133 -1.59961,-0.67383 -0.28674,-0.3825 -0.40039,-0.90917 -0.40039,-1.32617 l 0,-9 z m 9.99805,1 c -3.86007,0 -7.00001,3.14 -7,7 -1e-5,3.8601 3.13993,7 7,7 3.86007,0 7.00001,-3.1399 7,-7 10e-6,-3.86 -3.13993,-7 -7,-7 z m 0,1 c 3.31963,0 6,2.6804 6,6 0,3.3197 -2.68037,6 -6,6 -3.31963,0 -6.00001,-2.6803 -6,-6 -1e-5,-3.3196 2.68037,-6 6,-6 z m 3.49219,3.82226 c -0.27615,0.004 -0.49652,0.23167 -0.49219,0.50782 l 0,3.02343 c -0.01,0.67616 1.00956,0.67616 1,0 l 0,-3.02343 c 0.004,-0.28227 -0.22554,-0.51224 -0.50781,-0.50782 z m -6.49219,11.17774 0.76367,0 2.26367,0 2.26172,0 0.71094,0 c 0.41666,0 0.6612,0.10008 0.80664,0.23828 0.14543,0.1382 0.24609,0.35382 0.24609,0.76172 l 0,1 -8.05273,0 0,-1 c 0,-0.4166 0.0964,-0.63929 0.22852,-0.77149 0.13215,-0.1321 0.35481,-0.22851 0.77148,-0.22851 z m -4,3 1,0 0,1 -1,0 z m 13,0 1,0 0,1 -1,0 z" id="path4305" style="font-size:medium;font-style:normal;font-variant:normal;font-weight:normal;font-stretch:normal;text-indent:0;text-align:start;text-decoration:none;line-height:normal;letter-spacing:normal;word-spacing:normal;text-transform:none;direction:ltr;block-progression:tb;writing-mode:lr-tb;text-anchor:start;baseline-shift:baseline;color:#000000;fill:#000000;fill-opacity:1;fill-rule:nonzero;stroke:none;visibility:visible;display:inline;overflow:visible;enable-background:accumulate;font-family:sans-serif" transform="translate(-1100.2142,676.14997)"/></g></g></svg>